<?xml version="1.0" encoding="utf-8"?><!DOCTYPE svg PUBLIC "-//W3C//DTD SVG 1.1//EN" "http://www.w3.org/Graphics/SVG/1.1/DTD/svg11.dtd"><svg version="1.1" xmlns="http://www.w3.org/2000/svg" xmlns:xlink="http://www.w3.org/1999/xlink" x="0px" y="0px" viewBox="0 0 99.995 62.10375" enable-background="new 0 0 99.995 62.163" xml:space="preserve"><path d="M0,2.148v6h33.848c0.68-2.253,1.481-4.253,2.406-6H0z"/><path d="M0,15.148v6h31.497c0.196-2.124,0.452-4.121,0.762-6H0z"/><path d="M31.001,31.616L31,30.998l0.001-0.058c0.014-0.951,0.039-1.877,0.069-2.792H0v6h31.074c-0.027-0.811-0.051-1.631-0.065-2.47
	L31.001,31.616z"/><path d="M0,41.148v6h32.28c-0.314-1.879-0.574-3.875-0.773-6H0z"/><path d="M0,54.148v6h36.323c-0.937-1.744-1.748-3.744-2.436-6H0z"/><path d="M100,31.014h-0.004c-0.049-7.867-4.279-15.119-12.25-20.979C76.244,1.579,59.203-2.183,48.105,1.285
	c-7.864,2.458-8.987,21.596-9.103,29.771H39c0,0.013,0,0.027,0,0.04c0,0.004,0,0.008,0,0.012h0
	c0.116,8.175,1.239,27.312,9.103,29.771c2.785,0.87,5.941,1.285,9.293,1.285c10.005,0,21.731-3.7,30.348-10.035
	c7.972-5.86,12.202-13.112,12.25-20.979H100c0-0.024-0.002-0.049-0.002-0.074C99.998,31.054,100,31.034,100,31.014z M84.191,47.293
	c-9.776,7.187-25.162,10.711-34.297,7.857c-2.108-0.659-4.696-11.299-4.893-24.058c0.193-12.77,2.784-23.423,4.893-24.082
	c9.133-2.855,24.521,0.67,34.296,7.857c4.46,3.278,9.771,8.749,9.806,16.207C93.967,38.539,88.653,44.013,84.191,47.293z"/></svg>