<?xml version="1.0" encoding="utf-8"?>
<!-- Svg Vector Icons : http://www.onlinewebfonts.com/icon -->
<!DOCTYPE svg PUBLIC "-//W3C//DTD SVG 1.1//EN" "http://www.w3.org/Graphics/SVG/1.1/DTD/svg11.dtd">
<svg version="1.1" xmlns="http://www.w3.org/2000/svg" xmlns:xlink="http://www.w3.org/1999/xlink" x="0px" y="0px" viewBox="0 0 256 256" enable-background="new 0 0 256 256" xml:space="preserve">
<metadata> Svg Vector Icons : http://www.onlinewebfonts.com/icon </metadata>
<g><g><path fill="#000000" d="M190.6,20.1C172.7,9.5,166,11.7,166,11.7l-9.1,15.3c0,0,9.9,2.2,23.4,10.3c13.6,8.1,20.2,15.8,20.2,15.8l8.6-14.3C209,38.7,208.5,30.7,190.6,20.1z"/><path fill="#000000" d="M126,30.5c-5.4,9-16.9,11.9-25.9,6.5c-9-5.4-11.9-16.9-6.5-25.9c5.3-8.9,16.9-11.9,25.9-6.5C128.4,10,131.4,21.6,126,30.5z M113.9,14c-3.8-2.2-8.6-1-10.9,2.7c-2.2,3.8-1,8.6,2.7,10.9c3.8,2.2,8.6,1,10.9-2.7C118.9,21.2,117.6,16.3,113.9,14z"/><path fill="#000000" d="M243.3,100.7c-5.4,9-16.9,11.9-25.9,6.5c-9-5.4-11.9-16.9-6.5-25.9c5.3-9,16.9-11.9,25.9-6.5C245.8,80.2,248.7,91.7,243.3,100.7z M231.2,84.2c-3.8-2.2-8.6-1-10.9,2.7c-2.2,3.8-1,8.6,2.7,10.9c3.8,2.2,8.6,1,10.9-2.7C236.2,91.3,235,86.4,231.2,84.2z"/><path fill="#000000" d="M45.1,165.9c-5.3,9-16.9,11.9-25.9,6.5c-9-5.4-11.9-16.9-6.5-25.9c5.3-8.9,16.9-11.9,25.9-6.5C47.5,145.3,50.4,156.9,45.1,165.9z M32.9,149.4c-3.8-2.2-8.6-1-10.9,2.7c-2.3,3.8-1,8.6,2.7,10.9c3.8,2.2,8.6,1,10.9-2.7C37.9,156.5,36.7,151.6,32.9,149.4z"/><path fill="#000000" d="M162.4,236c-5.3,9-16.9,11.9-25.9,6.5c-8.9-5.4-11.9-16.9-6.5-25.9c5.3-8.9,16.9-11.9,25.9-6.5C164.8,215.5,167.7,227.1,162.4,236z M150.3,219.5c-3.8-2.2-8.6-1-10.9,2.7c-2.2,3.8-1,8.6,2.7,10.9c3.8,2.2,8.6,1,10.9-2.7C155.2,226.7,154,221.8,150.3,219.5z"/><path fill="#000000" d="M211.1,173.1c-27.2,45.5-86.2,60.4-131.8,33.2C33.8,179,19,120,46.2,74.5C73.4,29,132.4,14.1,177.9,41.4C223.5,68.6,238.3,127.6,211.1,173.1z M168.1,57.9C131.7,36.1,84.5,48,62.7,84.4c-21.8,36.4-9.9,83.6,26.5,105.3c36.4,21.8,83.6,9.9,105.3-26.5C216.3,126.8,204.4,79.7,168.1,57.9z"/><path fill="#000000" d="M82.6,182.2l76.5-126.3l15.6,9.5L98.2,191.7L82.6,182.2L82.6,182.2z"/><path fill="#000000" d="M95.1,254c0,0-18.7-1.1-41.5-14.3S24,208.6,24,208.6l19.6-30.7c0,0,6.4,15.7,28.8,30.2c22.4,14.5,42.4,15.2,42.4,15.2L95.1,254z"/></g></g>
</svg>